<?xml version="1.0" encoding="utf-8"?>
<!-- Generator: Adobe Illustrator 19.2.1, SVG Export Plug-In . SVG Version: 6.00 Build 0)  -->
<svg version="1.1" id="Layer_1" xmlns="http://www.w3.org/2000/svg" xmlns:xlink="http://www.w3.org/1999/xlink" x="0px" y="0px"
	 viewBox="0 0 19.3 28.4" style="enable-background:new 0 0 19.3 28.4;" xml:space="preserve">
<style type="text/css">
	.st0{fill:#1B1C1D;}
</style>
<path class="st0" d="M18.3,10h-2.7V6.9c0-3.8-2.7-6.9-6-6.9c-3.3,0-6,3.1-6,6.9V10H1L0,28.4h19.3L18.3,10z M5.7,6.9
	c0-2.7,1.8-4.9,4-4.9c2.2,0,4,2.2,4,4.9V10h-8V6.9z M15.6,16.3L10,22.2L9,23.3c-0.1,0.1-0.3,0.2-0.5,0.2s-0.4-0.1-0.5-0.2l-1.1-1.1
	l-2.8-2.9c-0.1-0.1-0.2-0.3-0.2-0.5c0-0.2,0.1-0.4,0.2-0.5L5.1,17c0.1-0.1,0.3-0.2,0.5-0.2S6,16.9,6.2,17l2.3,2.4l5.1-5.3
	c0.1-0.1,0.3-0.2,0.5-0.2s0.4,0.1,0.5,0.2l1.1,1.1c0.1,0.1,0.2,0.3,0.2,0.5C15.8,16,15.8,16.2,15.6,16.3z"/>
</svg>
